<svg width="24" height="24" viewBox="0 0 24 24" fill="none" xmlns="http://www.w3.org/2000/svg">
<path fill-rule="evenodd" clip-rule="evenodd" d="M12.2578 23.9315C9.9025 23.9315 8.808 23.5862 6.9054 22.2049C5.70199 23.7588 1.89111 24.9733 1.72492 22.8955C1.72492 21.3358 1.38108 20.0178 0.9914 18.5789C0.52722 16.8062 0 14.832 0 11.9715C0 5.13969 5.58164 0 12.1948 0C18.8137 0 23.9999 5.39294 23.9999 12.0348C24.0221 18.574 18.7687 23.8966 12.2578 23.9315ZM12.3553 5.90518C9.1346 5.73827 6.6246 7.9772 6.0687 11.488C5.6103 14.3946 6.424 17.9342 7.1175 18.1184C7.4498 18.199 8.2865 17.5198 8.808 16.9961C9.6703 17.5944 10.6745 17.9537 11.7192 18.0378C15.0563 18.1991 17.9077 15.6475 18.1317 12.2996C18.2622 8.9446 15.6928 6.1029 12.3553 5.91094V5.90518Z" fill="white"/>
</svg>
