<?xml version="1.0" encoding="UTF-8"?>
<!DOCTYPE svg PUBLIC "-//W3C//DTD SVG 1.1//EN" "http://www.w3.org/Graphics/SVG/1.1/DTD/svg11.dtd">
<!-- Creator: CorelDRAW -->
<svg xmlns="http://www.w3.org/2000/svg" xml:space="preserve" width="1523px" height="1518px" version="1.1" style="shape-rendering:geometricPrecision; text-rendering:geometricPrecision; image-rendering:optimizeQuality; fill-rule:evenodd; clip-rule:evenodd"
viewBox="0 0 1521.32 1516.58"
 xmlns:xlink="http://www.w3.org/1999/xlink"
 xmlns:xodm="http://www.corel.com/coreldraw/odm/2003">
 <defs>
  <style type="text/css">
   <![CDATA[
    .fil1 {fill:black}
    .fil0 {fill:white}
   ]]>
  </style>
 </defs>
 <g id="Слой_x0020_1">
  <metadata id="CorelCorpID_0Corel-Layer"/>
  <path class="fil0" d="M372.47 0l776.37 0c204.87,0 372.48,167.61 372.48,372.47l0 771.64c0,204.86 -167.61,372.47 -372.48,372.47l-776.37 0c-204.86,0 -372.47,-167.61 -372.47,-372.47l0 -771.64c0,-204.86 167.61,-372.47 372.47,-372.47z"/>
  <path class="fil1" d="M772.44 1295.02c-107.13,0 -156.91,-15.6 -243.19,-77.99 -54.92,70.2 -227.77,124.81 -235.38,31.2 0,-70.14 -15.84,-129.23 -33.31,-194.26 -21.38,-79.69 -45.16,-168.33 -45.16,-297.16 0,-307.17 253.55,-538.24 554.22,-538.24 300.58,0 536.3,242.3 536.3,541.23 0,298.89 -243.23,535.23 -533.49,535.23l0.01 -0.01zm4.34 -810.86c-146.28,-7.62 -260.42,93.24 -285.6,251.11 -20.87,130.76 16.11,290.06 47.72,298.07 14.92,3.78 53.1,-26.92 76.62,-50.31 38.73,24.94 83.14,44.28 132.52,46.82 150.2,7.82 283.26,-108.97 291.15,-258.22 7.88,-149.25 -112.21,-279.65 -262.39,-287.47l-0.02 0z"/>
 </g>
</svg>
