<svg width="32" height="32" viewBox="0 0 32 32" fill="none" xmlns="http://www.w3.org/2000/svg">
<g clip-path="url(#clip0_2559_66)">
<path d="M16.5068 4C21.9318 4 24.6597 3.99977 26.3301 5.68457C28.0004 7.36938 28 10.0827 28 15.4932V16.5068C28 21.9183 28.0148 24.6306 26.3301 26.3154C24.6453 28.0002 21.9318 28 16.5068 28H15.5078C10.0819 28 7.36938 28.0002 5.68457 26.3154C3.99978 24.6306 4 21.9184 4 16.5068V15.4932C4 10.0807 3.99978 7.36937 5.68457 5.68457C7.36938 3.99978 10.0819 4 15.5078 4H16.5068ZM8.05566 11.3105C8.18343 17.5493 11.4676 21.3036 16.8789 21.3037H17.1934V17.7344C19.1631 17.9341 20.6334 19.405 21.2334 21.3037H24.0742C23.3033 18.4633 21.3047 16.893 20.0625 16.293C21.3047 15.5509 23.0608 13.7517 23.4746 11.3105H20.8906C20.3473 13.2946 18.7349 15.0936 17.1934 15.2646V11.3105H14.5654V18.2344C12.9671 17.8378 10.8824 15.8932 10.7969 11.3105H8.05566Z" fill="white"/>
</g>
<defs>
<clipPath id="clip0_2559_66">
<rect width="24" height="24" fill="white" transform="translate(4 4)"/>
</clipPath>
</defs>
</svg>
