<svg width="165" height="257" viewBox="0 0 165 257" fill="none" xmlns="http://www.w3.org/2000/svg">
<path fill-rule="evenodd" clip-rule="evenodd" d="M71.0323 200.345C41.4585 170.406 30.9635 147.06 18.5459 111.834C18.3745 111.347 18.096 110.399 17.8928 110.07C17.0681 112.084 15.933 115.441 15.1137 117.66C14.9959 117.984 14.4522 119.355 14.5006 119.561C14.5996 120.001 16.589 124.426 16.8217 124.924C25.2151 142.752 41.6916 179.887 71.0323 200.345Z" fill="#002559"/>
<path fill-rule="evenodd" clip-rule="evenodd" d="M8.22755 29.7446C6.18205 32.8238 4.33476 35.7072 2.39896 38.5907C2.13676 38.9814 1.89034 39.3374 1.63874 39.7206C1.40834 40.0738 1.19414 40.4406 0.929238 40.8102C-0.171062 42.3494 -0.0561565 42.2105 0.0964435 43.4608C20.1523 134.493 41.7076 174.17 71.0324 200.344C36.0904 161.02 30.5377 89.0849 27.6087 34.3148C27.5525 33.2305 8.59695 33.9802 8.50605 32.9148L8.37486 30.3417C8.33726 29.5814 8.28105 29.8064 8.22755 29.7446Z" fill="#E94B11"/>
<path fill-rule="evenodd" clip-rule="evenodd" d="M71.0325 200.344C100.063 188.018 154.354 118.501 164.865 12.5134L154.051 0.326294C154.04 0.312994 154.024 0.294184 154.011 0.280884L153.933 0.189697C153.92 0.176397 153.904 0.157596 153.89 0.144196C153.73 -0.00830445 153.818 0.0773684 153.679 0.00756836C153.387 5.09737 152.943 10.4065 152.517 15.5336C147.925 70.7829 118.301 162.085 71.0325 200.344Z" fill="#E94B11"/>
<path fill-rule="evenodd" clip-rule="evenodd" d="M24.7466 216.609H123.5V256.79H24.7466V216.609Z" fill="#E94B11"/>
<path fill-rule="evenodd" clip-rule="evenodd" d="M53.354 225.067V248.303H47.0114V235.83C47.0114 234.028 46.9659 232.941 46.8722 232.577C46.7785 232.215 46.5188 231.937 46.0958 231.749C45.6728 231.565 44.7277 231.471 43.2632 231.471H42.6367V228.772C45.7049 228.175 48.0315 226.938 49.6191 225.067H53.354ZM57.0701 242.135H63.4127C63.4127 243.222 63.4261 243.907 63.4582 244.186C63.4904 244.469 63.6216 244.71 63.8491 244.9C64.074 245.091 64.3873 245.19 64.7782 245.19C65.1048 245.19 65.3752 245.096 65.5894 244.916C65.7982 244.734 65.9214 244.504 65.9455 244.215C65.9749 243.926 65.9856 243.348 65.9856 242.483V238.785C65.667 239.401 65.1958 239.862 64.5693 240.172C63.9375 240.48 63.153 240.635 62.2213 240.635C61.0567 240.635 60.0286 240.346 59.1344 239.773C58.2401 239.203 57.6779 238.512 57.4343 237.709C57.1933 236.906 57.0701 235.819 57.0701 234.448V232.598C57.0701 230.968 57.1398 229.757 57.2843 228.965C57.4262 228.167 57.7903 227.431 58.374 226.762C58.9657 226.087 59.7742 225.562 60.813 225.185C61.8492 224.812 63.0566 224.628 64.4301 224.628C66.1302 224.628 67.5251 224.842 68.6121 225.273C69.7045 225.704 70.5478 226.32 71.1449 227.134C71.7446 227.942 72.09 228.788 72.1863 229.68C72.2774 230.571 72.3256 232.293 72.3256 234.85V238.081C72.3256 240.842 72.2827 242.692 72.2024 243.629C72.1141 244.558 71.7526 245.444 71.1101 246.277C70.4648 247.109 69.5893 247.73 68.4889 248.145C67.3859 248.563 66.1142 248.775 64.6657 248.775C62.8746 248.775 61.4101 248.509 60.2749 247.985C59.1344 247.457 58.3151 246.713 57.8144 245.757C57.3165 244.799 57.0701 243.589 57.0701 242.135ZM63.4127 234.898C63.4127 235.878 63.5493 236.48 63.8358 236.71C64.1142 236.941 64.4033 237.053 64.6979 237.053C65.1423 237.053 65.4716 236.906 65.6751 236.617C65.8839 236.322 65.9856 235.749 65.9856 234.898V230.692C65.9856 229.669 65.8893 229 65.6911 228.687C65.4984 228.368 65.1691 228.21 64.7139 228.21C64.4408 228.21 64.1517 228.333 63.8545 228.577C63.5627 228.823 63.4127 229.479 63.4127 230.55V234.898ZM75.7418 242.135H82.0817C82.0817 243.222 82.0978 243.907 82.1299 244.186C82.1621 244.469 82.2906 244.71 82.5208 244.9C82.7457 245.091 83.0563 245.19 83.4499 245.19C83.7738 245.19 84.0442 245.096 84.2584 244.916C84.4672 244.734 84.5904 244.504 84.6172 244.215C84.6466 243.926 84.6547 243.348 84.6547 242.483V238.785C84.3387 239.401 83.8649 239.862 83.2384 240.172C82.6065 240.48 81.8247 240.635 80.8903 240.635C79.7284 240.635 78.6976 240.346 77.8061 239.773C76.9118 239.203 76.3469 238.512 76.1033 237.709C75.865 236.906 75.7418 235.819 75.7418 234.448V232.598C75.7418 230.968 75.8114 229.757 75.956 228.965C76.0952 228.167 76.4594 227.431 77.043 226.762C77.6347 226.087 78.4459 225.562 79.4847 225.185C80.5182 224.812 81.7283 224.628 83.0991 224.628C84.8019 224.628 86.1941 224.842 87.2838 225.273C88.3735 225.704 89.2195 226.32 89.8139 227.134C90.4163 227.942 90.759 228.788 90.8554 229.68C90.9464 230.571 90.9973 232.293 90.9973 234.85V238.081C90.9973 240.842 90.9517 242.692 90.8741 243.629C90.7857 244.558 90.4216 245.444 89.7791 246.277C89.1338 247.109 88.261 247.73 87.1606 248.145C86.0576 248.563 84.7832 248.775 83.3347 248.775C81.5463 248.775 80.0791 248.509 78.9439 247.985C77.8061 247.457 76.9841 246.713 76.4861 245.757C75.9881 244.799 75.7418 243.589 75.7418 242.135ZM82.0817 234.898C82.0817 235.878 82.221 236.48 82.5048 236.71C82.7832 236.941 83.075 237.053 83.3669 237.053C83.814 237.053 84.1406 236.906 84.3441 236.617C84.5556 236.322 84.6547 235.749 84.6547 234.898V230.692C84.6547 229.669 84.5583 229 84.3628 228.687C84.1674 228.368 83.8408 228.21 83.3856 228.21C83.1125 228.21 82.8207 228.333 82.5262 228.577C82.2317 228.823 82.0817 229.479 82.0817 230.55V234.898ZM105.61 225.067V230.111L101.557 248.303H95.2462L99.7709 229.238H93.4791V225.067H105.61Z" fill="white" stroke="#1B1918" stroke-width="0.1984"/>
<path fill-rule="evenodd" clip-rule="evenodd" d="M42.0423 159.927C57.3646 178.46 91.1686 175.078 104.357 162.573C113.107 150.233 125.363 131.066 131.31 112.054C137.253 33.0059 23.4456 4.74129 22.5674 109.12C27.7454 126.916 29.7453 134.581 42.0423 159.927Z" fill="white"/>
<path fill-rule="evenodd" clip-rule="evenodd" d="M21.978 107.01L23.6492 99.9761C23.7751 99.5929 24.1457 98.3058 24.3359 98.0939C24.6378 97.7575 24.4803 97.671 24.5964 97.1968L25.2944 95.336C25.8349 94.1271 26.2092 93.0783 26.8153 91.8807C26.9833 91.5486 27.0909 91.3952 27.2198 91.071C27.4919 90.3866 28.2376 88.9461 28.6713 88.3098L29.8616 86.2675C30.2689 85.4955 30.8673 84.6768 31.3357 83.9658C31.4075 83.8567 31.7572 83.335 31.8466 83.2386L32.2513 82.6782C32.7412 81.9076 33.3604 81.2041 33.9382 80.5108L34.5629 79.7752C34.5719 79.7619 34.5881 79.7324 34.5953 79.7208C34.7311 79.5115 34.9772 79.5491 35.0811 79.2599C35.3419 78.5336 36.2897 77.7647 36.8067 77.1872L37.7175 76.2206C38.8111 75.0832 39.9763 74.1123 41.116 73.005C41.7905 72.3496 42.5195 71.8109 43.2646 71.2826C43.579 71.0597 43.48 71.1239 43.7226 70.8851L46.5219 68.8492C46.9912 68.5052 48.4676 67.5395 48.8289 67.4318C49.1835 67.3259 50.109 66.6082 50.5962 66.3769C50.7389 66.3092 50.7901 66.2632 50.9036 66.1992C51.0087 66.1399 51.1317 66.099 51.2409 66.0388L54.9984 64.1751L59.044 62.5821C59.4748 62.4032 60.0427 62.3189 60.4836 62.127C60.7387 62.0155 60.9679 61.9904 61.2221 61.8937C62.1079 61.557 64.0903 61.0359 64.9802 60.9016L68.096 60.2505C70.3832 60.0395 72.6603 59.6797 75.1166 59.6458C77.4956 59.6134 80.0976 59.6209 82.3292 59.9295C82.8787 60.0056 83.3612 60.1637 83.8568 60.2022C84.1533 60.2254 84.4668 60.2242 84.7627 60.2569C85.1173 60.2957 85.1488 60.3759 85.5834 60.4092C86.6863 60.4937 90.6731 61.4314 91.7683 61.8303L97.3727 63.8193C98.2354 64.169 99.1904 64.669 100.033 65.0106C101.119 65.4506 102.621 66.3431 103.709 66.973L104.063 67.2057C104.075 67.2157 104.093 67.2324 104.105 67.2419L106.246 68.5877C106.855 69.002 107.552 69.3653 108.1 69.8626C108.196 69.9495 108.14 69.9286 108.214 69.9808L111.461 72.4454C112.153 73.1014 113.264 73.9681 113.97 74.68L117.006 77.8522C117.231 78.0965 117.138 77.7404 117.173 78.188C117.583 78.2218 117.445 78.2242 117.63 78.4552L119.46 80.6555C119.565 80.8307 119.438 80.6993 119.613 80.8854L121.005 82.7161C121.093 82.8831 121.018 82.8797 121.158 83.0227C121.57 83.4442 121.92 83.947 122.246 84.4559C122.275 84.5005 122.383 84.7208 122.395 84.7431C122.724 85.3611 123.188 85.8637 123.555 86.4927L124.433 88.0039C124.767 88.4861 124.978 89.0663 125.258 89.5558L125.363 89.6884C125.684 90.1417 125.95 91.1865 126.068 91.3555C126.565 92.0668 126.993 92.9685 127.296 93.8063L127.756 94.8004C127.819 94.9544 127.867 95.1275 127.955 95.3446C128.976 97.8646 129.829 100.464 130.466 103.128L131.014 105.474C131.16 106.338 131.328 107.142 131.456 108C131.512 108.375 131.692 110.281 131.893 110.575C132.098 110.26 132.356 109.469 132.507 109.074C135.495 101.273 138.03 94.0674 140.402 85.9966C142.916 77.4414 145.175 68.5432 146.985 59.4912C149.695 45.9392 151.959 29.9469 152.889 15.824C153.177 11.4574 153.709 4.16811 153.679 0.00880756C152.012 -0.0392924 149.928 0.120506 148.238 0.224506L132.951 1.3485C126.374 1.8936 119.771 2.7184 113.278 3.5689C89.6767 6.6606 63.4419 12.083 40.8778 18.9102C38.0828 19.7561 35.2273 20.6037 32.4763 21.5402C29.7823 22.4576 26.9442 23.2797 24.2901 24.2973C22.9388 24.8154 21.6248 25.252 20.2547 25.7392C18.0832 26.5112 14.3497 27.8727 12.3051 28.7365L8.37593 30.2934C8.35413 31.8415 8.64043 33.9881 8.78813 35.5852C9.41313 42.3487 10.2668 48.9739 11.2238 55.6885C11.3422 56.5205 11.4635 57.3542 11.59 58.1576L11.8882 60.0164C12.6713 65.8043 14.2371 73.9864 15.4252 79.7634L16.5322 85.0277C16.5765 85.2407 16.6187 85.4257 16.6619 85.6234C16.7487 86.0209 16.828 86.3752 16.912 86.7744C17.9729 91.819 19.4317 97.5995 20.7552 102.614C20.9691 103.424 21.7458 106.477 21.978 107.01ZM71.4752 175.32L73.4926 180.396L78.7329 178.811L76.1012 183.549L80.5836 186.627L75.1748 187.483L75.585 192.928C75.3442 192.764 75.2843 192.674 75.0877 192.483L71.5218 189.317C71.0459 189.636 70.0269 190.713 69.5185 191.185L67.5332 193.001L67.8818 187.525L63.7901 186.931C63.5675 186.898 63.3206 186.862 63.0939 186.831C62.5283 186.753 62.7078 186.803 62.5083 186.64C63.0496 186.414 66.8037 183.721 66.9259 183.549L64.8969 180.043C64.6624 179.622 64.4134 179.318 64.2481 178.855L69.4896 180.387L71.4752 175.32ZM101.667 166.437C101.653 166.429 101.632 166.416 101.624 166.415C101.616 166.414 101.588 166.401 101.577 166.401L100.825 166.69C99.7043 167.334 95.9024 168.87 94.8255 169.193L91.1088 170.367C89.8035 170.656 88.5135 171.035 87.1993 171.264C80.2556 172.474 75.843 172.537 69.1503 171.706C66.9071 171.427 66.8442 171.315 64.9727 170.975C63.1825 170.65 62.0735 170.154 60.6614 169.821C59.7388 169.604 55.1779 167.919 54.2617 167.41C54.1407 167.342 54.207 167.38 54.0984 167.317L52.8067 166.717C52.6724 166.644 52.5687 166.589 52.4315 166.527L48.8427 164.57C48.7174 164.506 48.6002 164.437 48.4789 164.35L47.7965 163.911C47.49 163.752 47.3499 163.651 47.0224 163.443L46.5746 163.155C46.2678 162.882 46.7532 163.138 46.3381 162.915L43.4383 160.897C42.8341 160.448 43.271 160.879 42.7667 160.36C42.5916 160.18 42.2899 159.97 42.0433 159.927C44.008 163.715 46.066 167.457 48.2424 171.124C49.9292 173.966 54.5468 181.179 56.8807 184.136C58.115 185.701 59.3318 187.47 60.6501 189.03L64.1158 193.159C64.3659 193.4 64.4079 193.489 64.6114 193.728C65.5161 194.791 70.2776 199.797 71.0317 200.345C71.9447 199.699 72.5347 199.082 73.2992 198.48C73.4223 198.382 73.5135 198.335 73.6238 198.233L75.9834 196.098C76.2181 195.842 76.2364 195.823 76.4784 195.618L79.5857 192.675C81.7141 190.568 85.8807 186.2 87.9036 183.838C90.2389 181.112 92.5203 178.493 94.7488 175.649C95.6274 174.528 101.256 167.305 101.667 166.437Z" fill="#002559"/>
<path d="M64.9106 112.009C65.0843 111.835 65.346 111.773 65.6415 111.661C70.3648 109.869 75.6523 107.833 80.3541 106.186C82.8765 105.302 81.6114 105.084 84.8473 107.806C85.7948 108.603 86.8152 109.719 87.6243 110.42C89.1062 111.705 93.4222 116.201 95.0326 117.883C95.5945 118.47 95.6573 118.347 95.6579 119.497C95.6589 122.064 95.3053 124.878 95.0207 127.414C94.7353 129.957 94.3584 132.482 94.0504 135.004C93.9155 136.108 94.033 135.839 93.1292 136.197L88.4893 137.932C85.3495 138.996 81.9122 140.152 78.5764 140.756C77.9482 140.871 77.3828 140.961 76.7483 141.029C75.6781 141.144 75.7669 141.156 75.0096 140.679C73.1378 139.499 71.6264 138.336 70.0385 137.074L68.2938 135.631C68.0498 135.391 67.9085 135.327 67.7261 135.134L64.4254 132.067C64.0543 131.755 63.6791 131.384 63.33 131.038C62.8358 130.549 62.9319 130.321 62.9696 129.298C63.0619 126.774 64.5478 112.627 64.9106 112.009ZM45.5415 134.626C44.8685 134.231 44.4756 133.916 43.9059 133.468L37.1198 126.365C36.9174 126.1 36.6847 125.886 36.4829 125.617L34.9767 123.69C34.8609 123.537 34.8178 123.395 34.7711 123.164C33.9779 119.237 35.5247 112.835 36.6108 108.85L37.8889 104.572L44.9287 102.79C45.5676 102.619 51.5562 101.059 52.1016 101.024L55.9987 104.791C56.4497 105.244 56.8938 105.612 57.339 106.066L62.542 111.144L61.523 115.134C60.4924 119.247 59.6775 123.39 58.7222 127.538C58.1215 130.147 58.8383 129.653 56.6046 130.474C55.2715 130.965 46.3671 134.422 45.5415 134.626ZM83.7617 103.729L84.5885 88.0352L87.6585 86.5351C88.2916 86.2329 97.1427 82.3312 97.5025 82.3897C99.8642 83.6932 102.322 85.3236 104.356 86.8278L109.025 90.6536C110.275 91.7059 111.389 92.9895 112.434 94.2699C112.725 94.6257 112.801 94.7035 112.842 95.3126C112.963 97.1011 113.09 98.9054 113.117 100.706C113.151 103.044 113.064 109.294 111.958 110.918L107.818 112.237C106.437 112.675 105.04 113.133 103.687 113.583C102.318 114.039 100.933 114.474 99.5842 114.956C99.4302 115.011 99.2345 115.094 99.0976 115.114C98.8046 115.155 99.0122 115.158 98.7268 114.928C97.2411 113.73 94.7127 111.996 93.1973 110.817C92.1482 110.001 91.1448 109.277 90.0624 108.472C89.75 108.24 84.0616 104.099 83.7617 103.729ZM61.6906 73.4182C61.7337 73.3858 61.7398 73.3733 61.8466 73.3036L62.9504 72.6933C63.3913 72.4476 63.7709 72.2568 64.2378 72.0177C66.4295 70.8965 68.5917 69.8462 70.8896 68.9503C71.3337 68.7769 71.8429 68.6316 72.2685 68.4347C72.3116 67.9776 72.1978 67.3555 72.0783 66.9042C67.5105 66.734 61.217 68.787 57.5634 70.3219C55.3656 71.245 53.5658 72.2082 51.5681 73.3146C50.6076 73.8464 46.5976 76.3313 46.2311 76.8498L46.925 78.1669L52.9906 75.9674C54.0557 75.594 58.4834 74.1141 59.4448 74.1576L61.4816 81.67C61.3287 81.8582 60.9822 82.172 60.7822 82.368C57.5194 85.5653 54.5041 90.3589 52.0947 94.2684C50.7601 96.4338 51.3217 95.8073 49.0351 96.7609L37.4532 101.585C36.7518 100.8 35.6075 97.977 35.1756 96.7783L33.4297 91.4153C33.1017 91.8136 32.7077 92.7116 32.4529 93.1779C28.4707 100.47 26.6169 108.819 26.6128 117.209C26.6118 120.492 27.0604 123.787 27.745 126.916C29.0425 126.548 31.8213 124.962 33.0415 124.831C33.7684 126.01 34.3818 127.156 35.1104 128.21C36.0478 129.566 37.5051 131.675 38.6633 132.904L40.5609 135.099C40.7702 135.357 40.9893 135.514 41.2033 135.764L42.5222 137.138C43.1547 137.773 43.4711 137.855 43.6549 138.772C44.3651 142.31 45.5612 145.714 46.9901 149.009L48.7372 152.667L47.8586 153.514C47.0964 154.175 45.4315 155.207 44.9985 155.62C45.1962 155.928 45.9986 156.63 46.2768 156.819C47.1795 156.646 48.2618 156.273 49.0808 155.964C52.9999 154.485 50.1765 154.529 55.0385 156.494C59.3417 158.233 64.162 159.111 68.9119 159.056C69.5207 159.049 70.7429 160.046 71.3381 160.369C73.57 161.582 75.7157 162.717 78.1315 163.627C79.1997 164.03 80.7562 164.602 81.9796 164.811C82.2231 164.777 83.6876 163.704 84.0735 163.428C84.1742 163.356 84.1424 163.384 84.2243 163.309C84.237 163.297 84.2619 163.285 84.2709 163.251C84.2809 163.215 84.301 163.208 84.3164 163.187C81.3584 162.731 78.4409 160.983 76.2761 159.43C76.0214 159.247 75.8219 159.092 75.586 158.895C75.122 158.506 74.6889 158.232 74.3053 157.804C74.1001 157.574 73.9353 157.465 73.7066 157.262C73.31 156.908 72.8055 156.492 72.602 156.088C73.3202 155.074 74.3577 152.317 74.8232 151.062C75.487 149.271 76.1517 147.581 76.724 145.783L81.6285 144.072C84.2217 143.164 88.2334 141.346 90.6046 139.974C91.3205 139.559 92.0057 139.21 92.693 138.791C93.3611 138.383 94.024 137.847 94.7246 137.527C95.1713 137.865 95.5404 138.177 95.9749 138.507C97.6519 139.781 99.4343 140.885 101.24 141.989C102.547 142.787 104.068 143.749 105.432 144.319C105.367 145.373 105.017 146.83 104.803 147.881C104.265 150.524 103.584 153.247 102.308 155.599C102.147 155.897 101.646 156.612 101.614 156.883L103.793 157.294C103.879 157.2 103.828 157.271 103.931 157.138C104.56 156.323 105.379 154.633 105.837 153.725C107.087 151.245 108.183 148.62 108.915 145.852C109.19 144.811 109.09 144.349 109.734 143.901C110.805 143.155 111.806 142.332 112.72 141.414C112.98 141.153 113.149 140.987 113.396 140.703L114.058 139.975C114.194 139.817 114.225 139.721 114.383 139.559C115.123 138.802 115.859 137.775 116.453 136.892C117.168 135.829 117.868 134.729 118.57 133.532L120.46 129.965C120.463 129.963 123.383 129.483 124.615 128.802L125.141 125.84C124.458 125.939 121.594 126.61 121.157 126.239C121.032 126.08 121.069 125.972 121.037 125.705C120.559 121.7 117.722 115.555 116.033 112.168C115.53 111.159 115.667 111.383 115.743 110.183C115.791 109.445 115.833 108.687 115.85 107.946C115.938 104.125 115.782 100.343 115.296 96.5548C115.215 95.9298 115.04 95.0804 115.011 94.4812L120.201 92.1911C120.246 90.9165 118.001 88.1174 117.081 87.0125C116.93 86.8321 116.873 86.7354 116.751 86.604C116.557 86.3947 116.574 86.3854 116.422 86.2008C114.728 84.1422 112.84 82.275 110.95 80.3989L108.583 78.2691C104.703 74.8529 99.5518 70.9804 94.2736 70.1253C94.4238 70.922 94.7133 71.7609 94.9229 72.5605C95.3253 74.0939 96.5753 78.679 96.4077 79.8309C95.6979 79.947 95.0587 80.1129 94.3879 80.2686C91.2157 81.0045 88.146 82.0944 85.0583 83.1956L82.3713 84.188C81.9599 84.3411 81.933 84.2192 81.5335 84.0719L80.1486 83.5847C78.1089 82.9241 76.1013 82.3297 73.9935 81.8967C73.2779 81.7496 72.6436 81.6301 71.9356 81.5024L67.6234 80.913C64.6662 80.581 65.6554 81.2199 64.4538 78.9361L62.117 74.3301C61.95 73.9839 61.8009 73.8047 61.6906 73.4182Z" fill="url(#paint0_radial_34_68)"/>
<path fill-rule="evenodd" clip-rule="evenodd" d="M64.9105 112.009C64.5477 112.626 63.0618 126.774 62.9695 129.298C62.9318 130.321 62.8357 130.549 63.3299 131.038C63.679 131.384 64.0542 131.755 64.4253 132.067L67.726 135.134C67.9084 135.326 68.0497 135.391 68.2937 135.631L70.0384 137.073C71.6263 138.336 73.1377 139.499 75.0095 140.679C75.7668 141.156 75.678 141.144 76.7482 141.029C77.3827 140.961 77.9481 140.87 78.5763 140.756C81.9121 140.152 85.3494 138.996 88.4892 137.931L93.1291 136.197C94.0329 135.838 93.9154 136.108 94.0503 135.004C94.3583 132.482 94.7352 129.956 95.0206 127.414C95.3052 124.878 95.659 122.064 95.6578 119.497C95.6572 118.347 95.5944 118.47 95.0325 117.883C93.4221 116.201 89.1061 111.705 87.6242 110.42C86.8151 109.719 85.7947 108.603 84.8472 107.806C81.6113 105.084 82.8764 105.302 80.354 106.186C75.6522 107.833 70.3647 109.869 65.6414 111.661C65.3459 111.773 65.0842 111.835 64.9105 112.009Z" fill="white"/>
<path fill-rule="evenodd" clip-rule="evenodd" d="M83.7617 103.729C84.0616 104.098 89.75 108.24 90.0624 108.472C91.1448 109.276 92.1482 110.001 93.1973 110.817C94.7127 111.996 97.2411 113.73 98.7268 114.928C99.0122 115.158 98.8046 115.155 99.0976 115.113C99.2345 115.094 99.4302 115.011 99.5842 114.956C100.933 114.474 102.318 114.038 103.687 113.583C105.04 113.133 106.437 112.675 107.818 112.237L111.958 110.918C113.064 109.294 113.151 103.044 113.117 100.706C113.09 98.9053 112.963 97.1009 112.842 95.3124C112.801 94.7033 112.725 94.6256 112.434 94.2698C111.389 92.9894 110.275 91.7058 109.025 90.6535L104.356 86.8276C102.322 85.3234 99.8642 83.6931 97.5025 82.3896C97.1427 82.3311 88.2916 86.2328 87.6585 86.535L84.5885 88.0351L83.7617 103.729Z" fill="white"/>
<path fill-rule="evenodd" clip-rule="evenodd" d="M45.5416 134.626C46.3672 134.422 55.2716 130.965 56.6047 130.474C58.8384 129.653 58.1216 130.146 58.7223 127.538C59.6776 123.39 60.4925 119.246 61.5231 115.134L62.542 111.144L57.339 106.066C56.8938 105.612 56.4497 105.244 55.9987 104.791L52.1016 101.024C51.5562 101.059 45.5677 102.619 44.9288 102.79L37.889 104.571L36.6109 108.85C35.5248 112.835 33.9779 119.237 34.7711 123.164C34.8178 123.394 34.861 123.537 34.9768 123.69L36.483 125.617C36.6848 125.886 36.9175 126.1 37.1199 126.365L43.906 133.468C44.4757 133.916 44.8686 134.231 45.5416 134.626Z" fill="white"/>
<path fill-rule="evenodd" clip-rule="evenodd" d="M21.978 107.01L22.5671 109.12C27.9739 84.7886 49.6689 63.7876 78.4666 64.6202C92.0531 65.013 104.547 70.8094 113.761 79.465C118.025 83.4706 121.549 87.883 124.741 93.5679C125.469 94.8642 126.208 96.3174 126.841 97.7559C127.179 98.5259 127.499 99.2132 127.806 99.9788C128.98 102.912 130.161 106.424 130.755 109.532C130.856 110.061 131.146 111.665 131.31 112.053C131.525 111.547 131.752 111.091 131.893 110.575C131.692 110.281 131.512 108.375 131.456 108.001C131.328 107.143 131.16 106.338 131.014 105.474L130.466 103.128C129.829 100.464 128.976 97.8647 127.955 95.3447C127.867 95.1276 127.819 94.9545 127.756 94.8005L127.296 93.8064C126.993 92.9686 126.565 92.0669 126.068 91.3556C125.95 91.1866 125.684 90.1418 125.363 89.6885L125.258 89.5559C124.978 89.0664 124.767 88.4862 124.433 88.004L123.555 86.4928C123.188 85.8638 122.724 85.3612 122.395 84.7432C122.383 84.7209 122.275 84.5006 122.246 84.456C121.92 83.9471 121.57 83.4443 121.158 83.0228C121.018 82.8798 121.093 82.8832 121.005 82.7162L119.613 80.8855C119.438 80.6994 119.565 80.8308 119.46 80.6556L117.63 78.4553C117.445 78.2243 117.583 78.2219 117.173 78.1881C117.138 77.7405 117.231 78.0966 117.006 77.8523L113.97 74.6801C113.264 73.9682 112.153 73.1015 111.461 72.4455L108.214 69.9809C108.14 69.9287 108.196 69.9496 108.1 69.8627C107.552 69.3654 106.855 69.0021 106.246 68.5878L104.105 67.242C104.093 67.232 104.075 67.2157 104.063 67.2058L103.709 66.9731C102.621 66.3432 101.119 65.4507 100.033 65.0107C99.1904 64.6691 98.2354 64.1691 97.3727 63.8194L91.7683 61.8304C90.6731 61.4315 86.6863 60.4938 85.5834 60.4093C85.1488 60.376 85.1174 60.2958 84.7628 60.257C84.4669 60.2243 84.1533 60.2255 83.8568 60.2023C83.3612 60.1638 82.8788 60.0057 82.3293 59.9296C80.0977 59.621 77.4956 59.6135 75.1166 59.6459C72.6603 59.6798 70.3832 60.0396 68.096 60.2506L64.9803 60.9017C64.0904 61.036 62.1079 61.5571 61.2221 61.8938C60.9679 61.9905 60.7387 62.0156 60.4836 62.1271C60.0427 62.319 59.4748 62.4033 59.044 62.5822L54.9984 64.1752L51.2409 66.0389C51.1317 66.0991 51.0088 66.14 50.9037 66.1993C50.7902 66.2633 50.739 66.3093 50.5963 66.377C50.1091 66.6083 49.1835 67.326 48.8289 67.4319C48.4676 67.5396 46.9912 68.5053 46.5219 68.8493L43.7227 70.8852C43.4801 71.124 43.579 71.0598 43.2646 71.2827C42.5195 71.811 41.7905 72.3497 41.116 73.0051C39.9763 74.1124 38.8111 75.0833 37.7175 76.2207L36.8067 77.1873C36.2897 77.7648 35.3419 78.5337 35.0811 79.26C34.9772 79.5492 34.7311 79.5116 34.5953 79.7209C34.5883 79.7325 34.5719 79.762 34.5629 79.7753L33.9382 80.5109C33.3604 81.2042 32.7412 81.9077 32.2513 82.6783L31.8466 83.2387C31.7572 83.3351 31.4076 83.8568 31.3358 83.9659C30.8674 84.6769 30.2689 85.4956 29.8616 86.2676L28.6714 88.3099C28.2377 88.9462 27.4919 90.3867 27.2198 91.0711C27.0909 91.3953 26.9833 91.5487 26.8153 91.8808C26.2092 93.0784 25.8349 94.1272 25.2944 95.3361L24.5964 97.1969C24.4803 97.6711 24.6378 97.7576 24.3359 98.094C24.1457 98.3059 23.7751 99.593 23.6492 99.9762L21.978 107.01Z" fill="#E94B11"/>
<path fill-rule="evenodd" clip-rule="evenodd" d="M42.0435 159.927C42.2901 159.969 42.5918 160.18 42.7669 160.36C43.2712 160.879 42.8343 160.448 43.4385 160.897L46.3383 162.915C46.7534 163.138 46.268 162.882 46.5748 163.155L47.0226 163.443C47.3501 163.651 47.4902 163.752 47.7967 163.911L48.4791 164.35C48.6004 164.437 48.7176 164.506 48.8429 164.57L52.4317 166.527C52.5689 166.589 52.6726 166.644 52.8069 166.717L54.0986 167.317C54.2072 167.38 54.1409 167.342 54.2619 167.41C55.1781 167.919 59.739 169.604 60.6616 169.821C62.0737 170.154 63.1827 170.65 64.9729 170.975C66.8444 171.315 66.9073 171.427 69.1505 171.706C75.8432 172.537 80.2558 172.474 87.1995 171.264C88.5137 171.034 89.8037 170.656 91.109 170.367L94.8257 169.193C95.9026 168.87 99.7045 167.334 100.825 166.69L101.577 166.401C101.588 166.401 101.615 166.414 101.624 166.415C101.632 166.416 101.653 166.429 101.667 166.437C101.906 166.254 104.287 162.872 104.359 162.573C103.88 162.677 103.095 163.035 102.583 163.213C98.3129 164.701 93.7714 165.93 89.2794 166.602C83.615 167.451 77.5152 167.912 71.4528 167.429C65.7812 166.977 60.2383 166.103 55.2146 164.571C52.1749 163.644 50.9776 163.178 48.1149 162.106C46.0361 161.328 44.3183 160.431 42.3966 159.494L42.1749 159.388C42.1242 159.36 42.0608 159.317 42.0154 159.291C41.8877 159.217 41.797 159.172 41.6479 159.144L42.0435 159.927Z" fill="#E94B11"/>
<path fill-rule="evenodd" clip-rule="evenodd" d="M69.4896 180.387L64.2481 178.855C64.4134 179.318 64.6624 179.622 64.8969 180.043L66.9259 183.549C66.8037 183.721 63.0496 186.414 62.5083 186.64C62.7078 186.803 62.5283 186.753 63.0939 186.831C63.3206 186.862 63.5675 186.898 63.7901 186.931L67.8818 187.525L67.5332 193.001L69.5185 191.185C70.0269 190.713 71.0459 189.636 71.5218 189.317L75.0877 192.483C75.2843 192.674 75.3442 192.764 75.585 192.928L75.1748 187.483L80.5836 186.627L76.1012 183.549L78.7329 178.811L73.4926 180.396L71.4752 175.32L69.4896 180.387Z" fill="white"/>
<path d="M21.978 107.01L23.6492 99.9761C23.7751 99.5929 24.1457 98.3058 24.3359 98.0939C24.6378 97.7575 24.4803 97.671 24.5964 97.1968L25.2944 95.336C25.8349 94.1271 26.2092 93.0783 26.8153 91.8807C26.9833 91.5486 27.0909 91.3952 27.2198 91.071C27.4919 90.3866 28.2376 88.9461 28.6713 88.3098L29.8616 86.2675C30.2689 85.4955 30.8673 84.6768 31.3357 83.9658C31.4075 83.8567 31.7572 83.335 31.8466 83.2386L32.2513 82.6782C32.7412 81.9076 33.3604 81.2041 33.9382 80.5108L34.5629 79.7752C34.5719 79.7619 34.5881 79.7324 34.5953 79.7208C34.7311 79.5115 34.9772 79.5491 35.0811 79.2599C35.3419 78.5336 36.2897 77.7647 36.8067 77.1872L37.7175 76.2206C38.8111 75.0832 39.9763 74.1123 41.116 73.005C41.7905 72.3496 42.5195 71.8109 43.2646 71.2826C43.579 71.0597 43.48 71.1239 43.7226 70.8851L46.5219 68.8492C46.9912 68.5052 48.4676 67.5395 48.8289 67.4318C49.1835 67.3259 50.109 66.6082 50.5962 66.3769C50.7389 66.3092 50.7901 66.2632 50.9036 66.1992C51.0087 66.1399 51.1317 66.099 51.2409 66.0388L54.9984 64.1751L59.044 62.5821C59.4748 62.4032 60.0427 62.3189 60.4836 62.127C60.7387 62.0155 60.9679 61.9904 61.2221 61.8937C62.1079 61.557 64.0903 61.0359 64.9802 60.9016L68.096 60.2505C70.3832 60.0395 72.6603 59.6797 75.1166 59.6458C77.4956 59.6134 80.0976 59.6209 82.3292 59.9295C82.8787 60.0056 83.3612 60.1637 83.8568 60.2022C84.1533 60.2254 84.4668 60.2242 84.7627 60.2569C85.1173 60.2957 85.1488 60.3759 85.5834 60.4092C86.6863 60.4937 90.6731 61.4314 91.7683 61.8303L97.3727 63.8193C98.2354 64.169 99.1904 64.669 100.033 65.0106C101.119 65.4506 102.621 66.3431 103.709 66.973L104.063 67.2057C104.075 67.2157 104.093 67.2324 104.105 67.2419L106.246 68.5877C106.855 69.002 107.552 69.3653 108.1 69.8626C108.196 69.9495 108.14 69.9286 108.214 69.9808L111.461 72.4454C112.153 73.1014 113.264 73.9681 113.97 74.68L117.006 77.8522C117.231 78.0965 117.138 77.7404 117.173 78.188C117.583 78.2218 117.445 78.2242 117.63 78.4552L119.46 80.6555C119.565 80.8307 119.438 80.6993 119.613 80.8854L121.005 82.7161C121.093 82.8831 121.018 82.8797 121.158 83.0227C121.57 83.4442 121.92 83.947 122.246 84.4559C122.275 84.5005 122.383 84.7208 122.395 84.7431C122.724 85.3611 123.188 85.8637 123.555 86.4927L124.433 88.0039C124.767 88.4861 124.978 89.0663 125.258 89.5558L125.363 89.6884C125.684 90.1417 125.95 91.1865 126.068 91.3555C126.565 92.0668 126.993 92.9685 127.296 93.8063L127.756 94.8004C127.819 94.9544 127.867 95.1275 127.955 95.3446C128.976 97.8646 129.829 100.464 130.466 103.128L131.014 105.474C131.16 106.338 131.328 107.142 131.456 108C131.512 108.375 131.692 110.281 131.893 110.575C132.098 110.26 132.356 109.469 132.507 109.074C135.495 101.273 138.03 94.0674 140.402 85.9966C142.916 77.4414 145.175 68.5432 146.985 59.4912C149.695 45.9392 151.959 29.9469 152.889 15.824C153.177 11.4574 153.709 4.16811 153.679 0.00880756C152.012 -0.0392924 149.928 0.120506 148.238 0.224506L132.951 1.3485C126.374 1.8936 119.771 2.7184 113.278 3.5689C89.6767 6.6606 63.4419 12.083 40.8778 18.9102C38.0828 19.7561 35.2273 20.6037 32.4763 21.5402C29.7823 22.4576 26.9442 23.2797 24.2901 24.2973C22.9388 24.8154 21.6248 25.252 20.2547 25.7392C18.0832 26.5112 14.3497 27.8727 12.3051 28.7365L8.37593 30.2934C8.35413 31.8415 8.64043 33.9881 8.78813 35.5852C9.41313 42.3487 10.2668 48.9739 11.2238 55.6885C11.3422 56.5205 11.4635 57.3542 11.59 58.1576L11.8882 60.0164C12.6713 65.8043 14.2371 73.9864 15.4252 79.7634L16.5322 85.0277C16.5765 85.2407 16.6187 85.4257 16.6619 85.6234C16.7487 86.0209 16.828 86.3752 16.912 86.7744C17.9729 91.819 19.4317 97.5995 20.7552 102.614C20.9691 103.424 21.7458 106.477 21.978 107.01ZM71.4752 175.32L73.4926 180.396L78.7329 178.811L76.1012 183.549L80.5836 186.627L75.1748 187.483L75.585 192.928C75.3442 192.764 75.2843 192.674 75.0877 192.483L71.5218 189.317C71.0459 189.636 70.0269 190.713 69.5185 191.185L67.5332 193.001L67.8818 187.525L63.7901 186.931C63.5675 186.898 63.3206 186.862 63.0939 186.831C62.5283 186.753 62.7078 186.803 62.5083 186.64C63.0496 186.414 66.8037 183.721 66.9259 183.549L64.8969 180.043C64.6624 179.622 64.4134 179.318 64.2481 178.855L69.4896 180.387L71.4752 175.32ZM101.667 166.437C101.653 166.429 101.632 166.416 101.624 166.415C101.616 166.414 101.588 166.401 101.577 166.401L100.825 166.69C99.7043 167.334 95.9024 168.87 94.8255 169.193L91.1088 170.367C89.8035 170.656 88.5135 171.035 87.1993 171.264C80.2556 172.474 75.843 172.537 69.1503 171.706C66.9071 171.427 66.8442 171.315 64.9727 170.975C63.1825 170.65 62.0735 170.154 60.6614 169.821C59.7388 169.604 55.1779 167.919 54.2617 167.41C54.1407 167.342 54.207 167.38 54.0984 167.317L52.8067 166.717C52.6724 166.644 52.5687 166.589 52.4315 166.527L48.8427 164.57C48.7174 164.506 48.6002 164.437 48.4789 164.35L47.7965 163.911C47.49 163.752 47.3499 163.651 47.0224 163.443L46.5746 163.155C46.2678 162.882 46.7532 163.138 46.3381 162.915L43.4383 160.897C42.8341 160.448 43.271 160.879 42.7667 160.36C42.5916 160.18 42.2899 159.97 42.0433 159.927C44.008 163.715 46.066 167.457 48.2424 171.124C49.9292 173.966 54.5468 181.179 56.8807 184.136C58.115 185.701 59.3318 187.47 60.6501 189.03L64.1158 193.159C64.3659 193.4 64.4079 193.489 64.6114 193.728C65.5161 194.791 70.2776 199.797 71.0317 200.345C71.9447 199.699 72.5347 199.082 73.2992 198.48C73.4223 198.382 73.5135 198.335 73.6238 198.233L75.9834 196.098C76.2181 195.842 76.2364 195.823 76.4784 195.618L79.5857 192.675C81.7141 190.568 85.8807 186.2 87.9036 183.838C90.2389 181.112 92.5203 178.493 94.7488 175.649C95.6274 174.528 101.256 167.305 101.667 166.437Z" fill="url(#paint1_radial_34_68)"/>
<path fill-rule="evenodd" clip-rule="evenodd" d="M34.2675 52.1684C34.6395 53.212 34.8578 53.984 34.9232 54.4768C35.013 55.1657 34.9252 55.8457 34.6598 56.517C34.2461 57.5601 33.0745 58.4253 31.1454 59.1129L30.4145 59.3731L31.3574 62.0196L27.196 63.5023L26.2528 60.8559L25.613 61.084C23.6772 61.7738 22.2192 61.8456 21.2389 61.2994C20.609 60.9471 20.1107 60.4758 19.7448 59.8852C19.484 59.462 19.1648 58.7258 18.7928 57.6822L18.6943 57.4061C18.3226 56.3622 18.1043 55.5901 18.0389 55.0971C17.9491 54.4084 18.037 53.7281 18.3021 53.0568C18.7164 52.0367 19.8951 51.1804 21.8376 50.4882C21.9792 50.4378 22.191 50.351 22.4666 50.2297L21.502 47.5227L25.6635 46.04L26.628 48.747C26.9722 48.6474 27.2183 48.5709 27.37 48.5171C29.3125 47.8249 30.7637 47.7442 31.723 48.2748C32.3532 48.6271 32.8511 49.0987 33.2173 49.6889C33.4781 50.1122 33.7975 50.848 34.1692 51.8919L34.2675 52.1684ZM30.4253 54.5465L29.6923 52.4894C29.498 51.944 29.2339 51.5445 28.9042 51.2901C28.5759 51.0394 28.2509 50.969 27.938 51.0808L27.5135 51.2319L29.5292 56.8885L29.9533 56.7371C30.2665 56.6256 30.4738 56.3659 30.5696 55.9636C30.664 55.558 30.6172 55.0852 30.4253 54.5465ZM25.3676 58.3712L23.3521 52.7146L23.0053 52.8383C22.6955 52.9486 22.4918 53.2071 22.3959 53.6092C22.2978 54.0159 22.3461 54.4924 22.5404 55.0378L23.2734 57.0949C23.4653 57.6336 23.728 58.0296 24.0612 58.2826C24.3897 58.5336 24.7114 58.6051 25.0211 58.4948L25.3676 58.3712ZM34.6182 43.3732L38.9294 42.4081L40.5153 49.3934C41.3091 49.1936 41.62 48.6517 41.4513 47.7665L40.8083 44.5184C40.5701 43.3229 40.6201 42.4657 40.9597 41.9536L44.9358 41.0634C44.642 41.5506 44.6399 42.4263 44.9287 43.6841L45.585 46.5185C45.9834 48.2317 45.2365 49.4281 43.3398 50.1017C45.3424 49.9026 46.5317 50.6801 46.9077 52.4272L47.4763 55.0653C47.7504 56.3225 48.1385 57.1733 48.6411 57.6177L44.6649 58.5078C44.1114 58.1958 43.7007 57.4414 43.4338 56.2487L42.7115 53.0224C42.6194 52.6107 42.424 52.3102 42.1241 52.1171C41.8213 51.9249 41.4749 51.867 41.0864 51.9466L42.6349 58.9623L38.3235 59.9275L34.6182 43.3732ZM62.1408 45.9048L57.7661 46.5205L57.3556 43.6042C57.2361 42.7549 57.1159 42.2338 56.9937 42.0344C56.8725 41.8387 56.6519 41.7611 56.3372 41.8054C55.9831 41.8554 55.7747 42.0147 55.7148 42.283C55.6557 42.5548 55.6838 43.1138 55.8034 43.9632L56.9008 51.7573C57.0158 52.5748 57.1402 53.0988 57.2711 53.3368C57.4016 53.5709 57.635 53.6645 57.9673 53.6176C58.2895 53.5721 58.4846 53.4184 58.5483 53.1529C58.6123 52.8915 58.5793 52.2972 58.4493 51.3732L58.1518 49.2602L62.5265 48.6445L62.6188 49.299C62.864 51.0406 62.9138 52.2932 62.7719 53.0531C62.6304 53.8167 62.175 54.5303 61.4131 55.1973C60.6482 55.8645 59.6531 56.2823 58.4213 56.4557C57.1435 56.6354 56.0565 56.5541 55.1594 56.2076C54.266 55.8605 53.6236 55.2974 53.2389 54.5144C52.8545 53.731 52.5464 52.5181 52.3148 50.8724L51.6241 45.967C51.4536 44.7564 51.3684 43.8442 51.3647 43.2276C51.3644 42.6101 51.5266 41.9921 51.8618 41.3743C52.1936 40.7574 52.7012 40.2346 53.385 39.8099C54.0688 39.3853 54.8852 39.1079 55.8339 38.9742C57.1186 38.7936 58.2154 38.8917 59.1244 39.2727C60.0296 39.6507 60.6653 40.1929 61.0356 40.8987C61.4018 41.605 61.6954 42.7407 61.9163 44.3083L62.1408 45.9048ZM71.6412 37.9257L75.175 54.708L70.6758 54.9779L70.2546 51.9521L68.6668 52.0474L68.61 55.1015L64.0539 55.3747L65.2725 38.3072L71.6412 37.9257ZM69.9571 48.9623C69.6317 47.0555 69.268 44.6924 68.8625 41.8699C68.6222 45.1498 68.49 47.5424 68.4625 49.0518L69.9571 48.9623ZM85.1513 37.8721L85.084 41.26L82.4896 41.2082L82.2188 54.781L77.8018 54.693L78.0725 41.1202L75.4561 41.068L75.5239 37.6802L85.1513 37.8721ZM86.8359 37.917L94.1787 38.357L93.9761 41.7394L91.0433 41.5636L90.8496 44.7963L93.5897 44.9605L93.3975 48.1715L90.6574 48.0073L90.434 51.7324L93.6664 51.9261L93.4637 55.3084L85.8213 54.8505L86.8359 37.917ZM105.388 56.8172L101.014 56.2012L102.906 42.7584L101.632 42.5792L100.293 52.0896C100.117 53.3425 99.8272 54.2185 99.4283 54.7185C99.0253 55.2213 98.4896 55.4923 97.8151 55.5383C97.1374 55.5835 96.0831 55.5073 94.6461 55.305L93.9629 55.2089L94.3695 52.3207C94.9042 52.3959 95.2783 52.38 95.4983 52.2772C95.7186 52.1748 95.881 51.7391 95.989 50.9711L97.7296 38.608L107.753 40.0189L105.388 56.8172ZM117.655 59.3349L113.344 58.37L116.31 45.1223L115.054 44.8412L112.956 54.2136C112.679 55.4483 112.321 56.2985 111.883 56.7646C111.441 57.2335 110.885 57.4605 110.209 57.4521C109.53 57.4431 108.485 57.2822 107.069 56.9652L106.396 56.8146L107.033 53.9684C107.56 54.0865 107.934 54.1004 108.161 54.0159C108.389 53.9314 108.586 53.5102 108.756 52.7534L111.483 40.5696L121.361 42.7809L117.655 59.3349ZM128.775 62.565L125.252 61.4699L127.543 54.1007L123.061 60.789L119.395 59.6493L124.43 43.4499L127.953 44.5451L125.68 51.8563L130.308 45.2769L133.81 46.3654L128.775 62.565ZM144.512 50.155L143.375 53.3469L140.93 52.4758L136.374 65.2636L132.212 63.7808L136.768 50.9928L134.303 50.1148L135.441 46.9229L144.512 50.155Z" fill="white" stroke="#1B1918" stroke-width="1.012" stroke-linejoin="round"/>
<defs>
<radialGradient id="paint0_radial_34_68" cx="0" cy="0" r="1" gradientUnits="userSpaceOnUse" gradientTransform="translate(72.4285 112.425) scale(49.2642 48.9582)">
<stop stop-color="#22B9C0"/>
<stop offset="1" stop-color="#002559"/>
</radialGradient>
<radialGradient id="paint1_radial_34_68" cx="0" cy="0" r="1" gradientUnits="userSpaceOnUse" gradientTransform="translate(78.1212 96.1656) scale(145.305 200.345)">
<stop stop-color="#22B9C0"/>
<stop offset="1" stop-color="#002559"/>
</radialGradient>
</defs>
</svg>
